<svg width="96" height="74" viewBox="0 0 96 74" fill="none" xmlns="http://www.w3.org/2000/svg">
<path d="M55.5 44.6H52.8V42.4C52.8 37.3 48.6 33.1 43.5 33.1H32.3V27C32.3 25.9 31.4 25 30.3 25C29.2 25 28.3 25.9 28.3 27V33.1H17.1C12 33.1 7.8 37.3 7.8 42.4V44.6H5.1C2.3 44.6 0 46.9 0 49.7V56.8C0 59.6 2.3 61.9 5.1 61.9H7.8V64.1C7.8 69.2 12 73.4 17.1 73.4H43.4C48.5 73.4 52.7 69.2 52.7 64.1V61.9H55.5C58.3 61.9 60.6 59.6 60.6 56.8V49.7C60.6 46.8 58.3 44.6 55.5 44.6ZM5.1 57.8C4.5 57.8 4 57.3 4 56.7V49.6C4 49 4.5 48.5 5.1 48.5H7.8V57.8H5.1ZM48.7 64C48.7 66.9 46.3 69.3 43.4 69.3H17.1C14.2 69.3 11.8 66.9 11.8 64V42.4C11.8 39.5 14.2 37.1 17.1 37.1H43.4C46.3 37.1 48.7 39.5 48.7 42.4V64ZM56.5 56.8C56.5 57.4 56 57.9 55.4 57.9H52.7V48.6H55.5C56.1 48.6 56.6 49.1 56.6 49.7V56.8H56.5Z" fill="#727AFF"/>
<path d="M22.3 51.8C24.6196 51.8 26.5 49.9196 26.5 47.6C26.5 45.2804 24.6196 43.4 22.3 43.4C19.9804 43.4 18.1 45.2804 18.1 47.6C18.1 49.9196 19.9804 51.8 22.3 51.8Z" fill="#727AFF"/>
<path d="M38.3 51.8C40.6196 51.8 42.5 49.9196 42.5 47.6C42.5 45.2804 40.6196 43.4 38.3 43.4C35.9804 43.4 34.1 45.2804 34.1 47.6C34.1 49.9196 35.9804 51.8 38.3 51.8Z" fill="#727AFF"/>
<path d="M39 55.9C38 55.4 36.8 55.9 36.3 56.9C35.5 58.7 33 60 30.3 60C27.6 60 25.1 58.7 24.3 56.9C23.8 55.9 22.6 55.4 21.6 55.9C20.6 56.4 20.1 57.6 20.6 58.6C22.1 61.9 26 64 30.3 64C34.6 64 38.5 61.8 40 58.6C40.4 57.6 40 56.4 39 55.9Z" fill="#727AFF"/>
<path d="M90.1999 0H54.5C51.9 0 49.7 2.1 49.7 4.8V26.2C49.7 28.8 51.8 31 54.5 31H57.2V38.5C57.2 39.2 57.5999 39.9 58.2999 40.2C58.4999 40.3 58.7999 40.4 59.0999 40.4C59.4999 40.4 59.9999 40.2 60.2999 40L70.6999 31.1H90.3C92.9 31.1 95.0999 29 95.0999 26.3V4.8C94.9999 2.2 92.8999 0 90.1999 0ZM91.3 26.2C91.3 26.8 90.7999 27.3 90.1999 27.3H69.9C69.5 27.3 68.9999 27.5 68.6999 27.7L60.7999 34.5V29.1C60.7999 28.1 60 27.3 59 27.3H54.5C53.9 27.3 53.4 26.8 53.4 26.2V4.8C53.4 4.2 53.9 3.7 54.5 3.7H90.3C90.9 3.7 91.4 4.2 91.4 4.8V26.2H91.3Z" fill="#727AFF"/>
<path d="M83.8 9.29999H60.9C59.9 9.29999 59.1 10.1 59.1 11.1C59.1 12.1 59.9 12.9 60.9 12.9H83.8C84.8 12.9 85.6 12.1 85.6 11.1C85.6 10.1 84.8 9.29999 83.8 9.29999Z" fill="#727AFF"/>
<path d="M83.8 17.9H60.9C59.9 17.9 59.1 18.7 59.1 19.7C59.1 20.7 59.9 21.5 60.9 21.5H83.8C84.8 21.5 85.6 20.7 85.6 19.7C85.6 18.7 84.8 17.9 83.8 17.9Z" fill="#727AFF"/>
</svg>
